<?xml version="1.0" standalone="no"?>
<!DOCTYPE svg PUBLIC "-//W3C//DTD SVG 20010904//EN"
 "http://www.w3.org/TR/2001/REC-SVG-20010904/DTD/svg10.dtd">
<svg version="1.0" xmlns="http://www.w3.org/2000/svg"
 width="2080.000000pt" height="2080.000000pt" viewBox="0 0 2080.000000 2080.000000"
 preserveAspectRatio="xMidYMid meet">
<metadata>
Created by potrace 1.14, written by Peter Selinger 2001-2017
</metadata>
<g transform="translate(0.000000,2080.000000) scale(0.100000,-0.100000)"
fill="#000000" stroke="none">
<path d="M3389 20036 c-2 -3 -119 -10 -259 -16 -342 -14 -464 -40 -608 -128
-33 -20 -84 -58 -113 -84 -46 -43 -57 -48 -98 -48 -103 -1 -185 -70 -291 -246
-36 -59 -80 -126 -99 -148 -19 -23 -51 -77 -72 -121 -58 -124 -79 -219 -86
-380 -6 -170 9 -296 72 -603 39 -186 49 -220 71 -243 l27 -28 -12 -303 c-35
-919 -38 -1707 -10 -2624 9 -314 9 -367 -3 -377 -8 -7 -23 -41 -32 -77 -40
-149 -106 -284 -293 -594 -99 -164 -111 -181 -143 -189 -24 -6 -60 -35 -120
-97 -47 -48 -95 -93 -107 -99 -12 -6 -44 -11 -71 -11 l-49 0 -7 -173 c-7 -177
0 -250 31 -311 20 -39 156 -197 185 -215 13 -8 50 -16 83 -17 33 -1 87 -10
120 -19 84 -24 150 -15 232 30 l66 36 -7 -103 c-25 -350 -80 -708 -236 -1508
-105 -544 -152 -843 -185 -1175 -21 -206 -29 -619 -17 -794 9 -129 9 -153 -9
-231 -52 -240 -74 -512 -66 -810 11 -394 48 -675 197 -1505 75 -419 96 -548
124 -765 l23 -175 -32 -685 c-29 -617 -35 -692 -54 -751 -11 -36 -29 -77 -39
-90 -43 -55 -102 -170 -131 -251 -53 -152 -64 -238 -58 -453 6 -240 29 -370
129 -729 l41 -150 -12 -269 c-7 -149 -9 -273 -4 -278 4 -4 244 -10 533 -14
l525 -6 240 -39 c960 -158 2052 -240 2802 -211 601 23 957 72 1338 183 l110
32 3493 -28 3494 -28 161 -84 c318 -166 507 -244 687 -285 99 -22 295 -34 360
-22 49 10 50 12 37 86 l-6 38 34 -30 c66 -58 149 -61 235 -8 19 12 97 81 173
155 l138 133 82 -3 81 -3 23 -40 c13 -22 33 -71 44 -108 20 -64 20 -69 4 -87
-19 -21 -15 -45 16 -84 31 -39 80 -36 112 7 31 40 74 127 117 236 l34 84 330
-8 c182 -4 392 -7 468 -5 136 2 136 2 153 -24 27 -41 44 -111 56 -233 11 -101
10 -115 -5 -131 -21 -24 -21 -35 9 -160 44 -179 32 -280 -42 -369 l-36 -45 21
-21 c15 -15 38 -22 79 -25 88 -6 136 11 198 71 75 74 94 132 105 317 5 80 18
213 29 295 11 83 24 188 28 235 l8 85 741 -4 742 -3 6 213 c3 118 33 2145 66
4504 33 2360 62 4419 66 4577 l7 288 68 -203 c74 -218 84 -278 53 -344 -10
-19 -28 -41 -40 -50 -33 -21 -30 -46 11 -82 47 -41 103 -56 210 -55 l91 1 27
-361 c107 -1393 198 -2081 373 -2796 42 -171 44 -185 28 -197 -30 -22 -126
-36 -201 -29 -43 3 -74 2 -78 -4 -3 -6 18 -50 49 -99 257 -415 370 -876 353
-1441 -8 -258 -22 -390 -99 -931 -34 -240 -58 -443 -55 -452 9 -25 95 -22 179
5 61 20 73 21 111 9 93 -28 95 -28 117 20 28 62 26 157 -3 230 -13 30 -49 95
-82 145 -142 218 -158 309 -68 405 l24 26 82 -19 c77 -18 82 -18 94 -2 14 19
17 53 7 79 -10 24 -51 41 -134 54 -74 12 -130 29 -130 39 0 2 9 19 20 38 27
43 94 69 152 59 24 -3 58 -9 77 -12 l34 -6 -7 39 c-4 22 -11 185 -16 364 -9
352 -20 443 -69 587 -32 93 -91 198 -156 278 l-44 54 44 21 c87 42 125 116
125 242 0 93 17 194 40 238 18 35 40 57 120 119 l25 20 -41 43 c-23 24 -55 64
-72 89 -43 64 -91 103 -157 128 -30 12 -60 21 -66 21 -6 0 -8 12 -5 28 9 45
34 287 48 462 17 216 17 1120 0 1415 -7 121 -31 490 -52 820 -61 928 -61 940
-67 1457 l-6 487 -32 38 c-56 66 -132 189 -165 270 -55 133 -73 243 -67 428 5
193 15 249 117 665 104 426 123 539 123 750 -1 104 -6 192 -15 238 -8 40 -12
75 -7 77 11 7 42 -6 55 -23 6 -9 13 -11 17 -5 3 5 -17 53 -44 107 -140 270
-190 579 -142 873 l17 104 -143 143 -143 143 46 159 c126 440 240 1061 272
1477 l7 82 -318 360 c-392 445 -363 415 -411 420 -21 3 -52 7 -69 10 -82 13
-487 57 -695 74 -286 25 -566 43 -1195 76 -1047 56 -1543 104 -2115 205 -91
17 -282 48 -425 70 -256 40 -576 95 -1190 204 -415 74 -747 129 -995 165
-1339 195 -2315 172 -3290 -80 -157 -40 -509 -150 -592 -184 -15 -6 -18 -2
-18 23 0 16 9 41 20 55 31 39 26 50 -17 42 -20 -3 -88 -10 -151 -15 -187 -14
-337 0 -867 80 -266 40 -520 49 -691 24 l-41 -6 5 32 c4 31 3 32 -24 28 -16
-3 -85 -22 -154 -42 -460 -136 -995 -173 -1745 -121 -454 31 -661 47 -685 52
-19 4 6 15 103 47 132 44 199 85 205 123 4 26 -20 33 -114 33 -69 0 -121 -11
-299 -64 -105 -32 -201 -36 -258 -12 -56 23 -112 71 -128 107 -12 30 -11 33
17 55 81 65 95 78 100 100 17 68 -76 74 -190 14 l-76 -40 -142 -4 c-80 -1
-153 2 -165 7 -12 6 -27 25 -33 43 -11 34 -12 34 -74 34 -35 0 -65 -2 -67 -4z
m7866 -2686 c242 -62 450 -242 547 -472 124 -294 112 -745 -26 -1023 -104
-208 -277 -351 -490 -405 -67 -17 -113 -20 -303 -20 l-224 0 7 -252 c3 -139 9
-311 13 -383 l6 -130 70 -7 c39 -3 126 -12 194 -18 367 -34 767 -119 1136
-242 99 -33 190 -65 202 -72 21 -11 20 -15 -83 -260 -57 -137 -105 -251 -107
-252 -1 -2 -67 19 -146 47 -276 95 -577 168 -861 208 -155 22 -342 41 -397 41
l-33 0 0 -435 0 -435 -275 0 -275 0 -2 433 -3 432 -55 -3 c-311 -17 -800 -117
-1135 -232 -298 -103 -666 -274 -922 -428 -1347 -813 -2198 -2252 -2262 -3824
-28 -696 93 -1376 356 -2001 246 -587 587 -1093 1034 -1534 234 -231 458 -413
719 -584 236 -155 593 -341 855 -444 371 -147 781 -249 1205 -301 178 -21 679
-30 865 -15 412 34 777 107 1145 231 937 314 1743 907 2318 1703 47 65 90 116
96 114 17 -7 425 -297 431 -307 3 -4 -37 -65 -88 -135 -297 -410 -698 -817
-1112 -1127 -799 -600 -1737 -950 -2754 -1028 -173 -13 -589 -13 -762 0 -683
53 -1321 224 -1914 515 -1049 514 -1896 1358 -2410 2400 -277 561 -434 1102
-511 1755 -22 184 -30 730 -15 942 118 1603 947 3040 2286 3960 685 471 1504
774 2355 872 74 9 154 16 178 16 87 0 79 -77 86 777 3 417 9 1025 12 1351 l6
592 483 0 c448 0 487 -1 560 -20z m2659 -3434 c100 -38 220 -122 312 -218 131
-137 174 -233 174 -393 0 -87 -15 -170 -42 -234 l-13 -30 -155 86 c-85 47
-157 87 -159 89 -3 3 3 21 13 41 77 161 -54 355 -250 371 -80 6 -146 -16 -224
-75 -130 -97 -276 -326 -287 -449 -10 -118 58 -232 172 -286 97 -46 190 -32
295 42 15 11 30 20 33 20 4 0 157 -172 225 -252 13 -15 7 -22 -63 -67 -166
-109 -357 -129 -534 -58 -136 55 -319 210 -393 332 -107 177 -111 410 -12 609
120 238 346 441 549 493 31 8 95 11 170 9 101 -2 131 -7 189 -30z m1658 -892
c48 -76 87 -146 87 -154 0 -9 -118 -87 -296 -195 -162 -99 -296 -184 -296
-190 -1 -5 28 -18 63 -27 107 -29 169 -66 250 -147 86 -86 132 -165 156 -267
19 -81 14 -190 -10 -249 -28 -67 -95 -144 -176 -205 -90 -66 -844 -532 -865
-534 -11 -1 -195 281 -195 299 0 2 116 74 258 161 575 352 599 369 634 437 73
144 -61 352 -241 374 -104 12 -201 -33 -634 -298 -173 -107 -313 -187 -318
-182 -10 10 -180 284 -182 295 -3 9 1655 1027 1668 1024 6 -1 49 -65 97 -142z
m3913 -494 c19 -135 37 -259 39 -277 4 -30 3 -32 -20 -22 -14 5 -36 9 -49 9
-38 0 -22 -22 56 -75 71 -49 109 -87 109 -111 0 -8 -7 -14 -15 -14 -22 0 -78
30 -88 46 -4 8 -12 14 -17 14 -14 0 -103 -97 -122 -133 -16 -31 -17 -24 -12
173 2 113 7 390 11 615 l6 410 33 -195 c19 -107 49 -305 69 -440z m-3015
-1371 c27 -90 46 -167 42 -170 -7 -7 -262 -85 -296 -91 -17 -3 -26 20 -71 170
-29 94 -52 172 -51 173 25 13 314 94 319 89 4 -4 30 -81 57 -171z m-524 -152
c46 -152 50 -173 35 -180 -26 -12 -1320 -397 -1335 -397 -19 0 -118 332 -102
344 11 8 1320 404 1341 405 6 1 33 -77 61 -172z m178 -759 c7 -30 26 -245 26
-285 l0 -31 -87 -8 c-47 -5 -88 -13 -90 -19 -2 -5 21 -23 50 -39 67 -39 143
-110 170 -161 29 -54 31 -214 4 -292 -10 -29 -23 -53 -28 -53 -18 0 -304 73
-311 79 -4 4 1 30 12 59 27 70 25 135 -4 198 -29 63 -61 88 -145 115 -56 18
-89 22 -211 21 -122 -1 -635 -40 -736 -57 l-31 -5 -17 181 c-9 100 -16 182
-14 184 3 2 1340 132 1385 134 16 1 24 -6 27 -21z m-608 -1123 c155 -28 271
-86 391 -199 91 -86 146 -168 180 -271 24 -72 27 -95 27 -225 0 -163 -19 -253
-75 -368 -89 -181 -285 -337 -474 -377 -144 -30 -349 -10 -491 48 -163 66
-316 216 -389 381 -89 201 -66 477 57 690 54 92 183 221 265 264 133 70 317
90 509 57z"/>
<path d="M10770 16400 l0 -390 161 0 c184 0 207 7 264 73 58 68 78 133 83 282
7 212 -38 330 -150 395 -53 30 -54 30 -205 30 l-153 0 0 -390z"/>
<path d="M15222 8760 c-174 -37 -283 -165 -285 -336 -3 -165 124 -302 328
-354 202 -51 359 -19 464 95 59 65 85 133 85 225 0 204 -194 357 -473 374 -42
3 -95 1 -119 -4z"/>
<path d="M367 4809 c-41 -10 -121 -48 -177 -85 -41 -27 -128 -146 -165 -226
-50 -107 -24 -247 61 -332 100 -100 284 -122 425 -50 74 37 164 127 199 197
58 120 66 248 21 342 -38 79 -72 110 -159 140 -74 26 -137 30 -205 14z"/>
<path d="M20088 4501 c18 -18 22 -32 22 -86 0 -75 7 -82 97 -91 50 -5 62 -3
86 16 41 32 38 83 -5 110 -45 28 -130 58 -181 66 l-42 7 23 -22z"/>
<path d="M20107 4231 c-26 -3 -48 -10 -48 -15 0 -5 146 -81 326 -170 l327
-160 36 19 c40 22 51 47 30 72 -23 28 -126 68 -328 128 -227 67 -274 87 -265
115 7 22 8 22 -78 11z"/>
<path d="M20634 3749 l76 -61 40 14 c22 7 40 17 41 22 0 10 -193 86 -219 86
-8 0 20 -27 62 -61z"/>
<path d="M416 2308 c-225 -137 -336 -301 -336 -497 1 -165 80 -221 314 -221
99 0 104 1 162 36 73 43 128 95 161 153 26 42 26 44 14 124 -15 99 -53 222
-93 301 -27 54 -111 156 -128 156 -4 0 -46 -24 -94 -52z"/>
<path d="M2114 1170 c-119 -68 -176 -151 -191 -277 -7 -61 8 -92 60 -123 40
-25 125 -26 174 -3 43 20 127 119 143 169 17 50 8 158 -18 217 -21 47 -21 47
-69 47 -35 0 -62 -8 -99 -30z"/>
</g>
</svg>
